# xmcd CD database file
#
# Track frame offsets:
#	150
#	13907
#	29244
#	46232
#	84982
#	104982
#	122157
#	134382
#	155007
#	167582
#	182182
#	200057
#	218919
#	230207
#	241519
#	257519
#
# Disc length: 3633 seconds
#
# Revision: 3
# Processed by: cddbd v1.5.2PL0 Copyright (c) Steve Scherf et al.
# Submitted via: CDex 1.51
#
DISCID=eb0e2f10
DTITLE=Various Artist - MediaMarkt - The 70s Vol.2 CD3
DYEAR=2002
DGENRE=Rhythmic Soul
TTITLE0=Blondie - Sunday Girl
TTITLE1=Clout - Substitute
TTITLE2=Marshall Hain - Dancing In The City
TTITLE3=Supermax - Lovemachine
TTITLE4=Santana - Samba Pa Ti
TTITLE5=Dr. Hook and The Medicine Show - Sylvia's Mother
TTITLE6=Christie - Yellow River
TTITLE7=Pussycat - Mississippi
TTITLE8=The Bay City Rollers - Bye Bye Baby
TTITLE9=Carl Douglas - Kung Fu Fighting
TTITLE10=Billy Swan - I Can Help
TTITLE11=The Hotlegs - Neanderthal Man
TTITLE12=The Osmonds - Crazy Horses
TTITLE13=The Rattles - The Witch
TTITLE14=Status Quo - Rockin' All Over The World
TTITLE15=B.A. Robertson - Bang Bang
EXTD=YEAR: 2002
EXTT0=
EXTT1=
EXTT2=
EXTT3=
EXTT4=
EXTT5=
EXTT6=
EXTT7=
EXTT8=
EXTT9=
EXTT10=
EXTT11=
EXTT12=
EXTT13=
EXTT14=
EXTT15=
PLAYORDER=
